<svg width="24" height="24" viewBox="0 0 24 24" fill="none" xmlns="http://www.w3.org/2000/svg">
  <title>Smartphone (outlined)</title>
  <g transform="matrix(
          1 0
          0 1
          4 1
        )"><path fill-rule="nonzero" clip-rule="nonzero" d="M 14 0 L 2 0 C 0.8999999761581421 0 0 0.8999999761581421 0 2 L 0 20 C 0 21.100000381469727 0.8999999761581421 22 2 22 L 14 22 C 15.100000381469727 22 16 21.100000381469727 16 20 L 16 2 C 16 0.8999999761581421 15.100000381469727 0 14 0 Z M 8 20.5 C 7.199999809265137 20.5 6.5 19.799999237060547 6.5 19 C 6.5 18.200000762939453 7.199999809265137 17.5 8 17.5 C 8.800000190734863 17.5 9.5 18.200000762939453 9.5 19 C 9.5 19.799999237060547 8.800000190734863 20.5 8 20.5 Z M 13 16 L 3 16 L 3 3 L 13 3 L 13 16 Z" fill="currentColor"/></g>
</svg>